<svg xmlns="http://www.w3.org/2000/svg" viewBox="0 0 900 470" font-family="-apple-system, Segoe UI, Roboto, Helvetica, Arial, sans-serif">
  <rect x="0.5" y="0.5" width="899" height="469" rx="14" fill="#ffffff" stroke="#e5e7eb"/>
  <defs>
    <marker id="ind" markerWidth="8" markerHeight="8" refX="6" refY="3" orient="auto"><path d="M0,0 L6,3 L0,6 Z" fill="#6366f1"/></marker>
    <marker id="gray" markerWidth="8" markerHeight="8" refX="6" refY="3" orient="auto"><path d="M0,0 L6,3 L0,6 Z" fill="#94a3b8"/></marker>
    <marker id="grn" markerWidth="8" markerHeight="8" refX="6" refY="3" orient="auto"><path d="M0,0 L6,3 L0,6 Z" fill="#10b981"/></marker>
  </defs>

  <text x="30" y="36" font-size="20" font-weight="600" fill="#111827">SciGuard architecture</text>
  <text x="30" y="58" font-size="13" fill="#6b7280">DataHub is the context and action layer for a deterministic scientific-data trust loop.</text>

  <rect x="8" y="96" width="128" height="68" rx="9" fill="#fef2f2" stroke="#ef4444"/>
  <text x="72" y="120" text-anchor="middle" font-size="12" font-weight="600" fill="#991b1b">scientific-data</text>
  <text x="72" y="135" text-anchor="middle" font-size="12" font-weight="600" fill="#991b1b">change</text>
  <text x="72" y="152" text-anchor="middle" font-size="9.5" fill="#b45c5c">unit swap, dropped col</text>

  <rect x="152" y="96" width="128" height="68" rx="9" fill="#eef2ff" stroke="#6366f1"/>
  <text x="216" y="128" text-anchor="middle" font-size="12.5" font-weight="600" fill="#3730a3">change detector</text>
  <text x="216" y="145" text-anchor="middle" font-size="9.5" fill="#6b7280">schema / unit diff</text>

  <rect x="296" y="96" width="128" height="68" rx="9" fill="#eef2ff" stroke="#6366f1"/>
  <text x="360" y="128" text-anchor="middle" font-size="12.5" font-weight="600" fill="#3730a3">lineage analyzer</text>
  <text x="360" y="145" text-anchor="middle" font-size="9.5" fill="#6b7280">impact + owners</text>

  <rect x="440" y="96" width="128" height="68" rx="9" fill="#eef2ff" stroke="#6366f1"/>
  <text x="504" y="128" text-anchor="middle" font-size="12.5" font-weight="600" fill="#3730a3">risk engine</text>
  <text x="504" y="145" text-anchor="middle" font-size="9.5" fill="#6b7280">domain profiles</text>

  <rect x="584" y="96" width="128" height="68" rx="9" fill="#eef2ff" stroke="#6366f1"/>
  <text x="648" y="128" text-anchor="middle" font-size="12.5" font-weight="600" fill="#3730a3">remediation</text>
  <text x="648" y="145" text-anchor="middle" font-size="9.5" fill="#6b7280">plan + report</text>

  <rect x="728" y="96" width="128" height="68" rx="9" fill="#ecfdf5" stroke="#10b981"/>
  <text x="792" y="120" text-anchor="middle" font-size="12" font-weight="600" fill="#065f46">incident report</text>
  <text x="792" y="135" text-anchor="middle" font-size="12" font-weight="600" fill="#065f46">+ model-at-risk</text>
  <text x="792" y="152" text-anchor="middle" font-size="9.5" fill="#4a8f78">written to catalog</text>

  <line x1="137" y1="130" x2="150" y2="130" stroke="#6366f1" marker-end="url(#ind)"/>
  <line x1="281" y1="130" x2="294" y2="130" stroke="#6366f1" marker-end="url(#ind)"/>
  <line x1="425" y1="130" x2="438" y2="130" stroke="#6366f1" marker-end="url(#ind)"/>
  <line x1="569" y1="130" x2="582" y2="130" stroke="#6366f1" marker-end="url(#ind)"/>
  <line x1="713" y1="130" x2="726" y2="130" stroke="#10b981" marker-end="url(#grn)"/>

  <rect x="60" y="250" width="780" height="160" rx="12" fill="#f8fafc" stroke="#94a3b8"/>
  <text x="80" y="280" font-size="14" font-weight="600" fill="#4338ca">DataHub — context and action layer</text>

  <rect x="78" y="300" width="175" height="88" rx="8" fill="#ffffff" stroke="#cbd5e1"/>
  <text x="165" y="349" text-anchor="middle" font-size="12" fill="#334155">schema + units</text>

  <rect x="268" y="300" width="175" height="88" rx="8" fill="#ffffff" stroke="#cbd5e1"/>
  <text x="355" y="349" text-anchor="middle" font-size="12" fill="#334155">multi-hop lineage</text>

  <rect x="458" y="300" width="175" height="88" rx="8" fill="#ffffff" stroke="#cbd5e1"/>
  <text x="545" y="349" text-anchor="middle" font-size="12" fill="#334155">ownership</text>

  <rect x="648" y="300" width="175" height="88" rx="8" fill="#ffffff" stroke="#cbd5e1"/>
  <text x="735" y="343" text-anchor="middle" font-size="12" fill="#334155">tags + incident</text>
  <text x="735" y="360" text-anchor="middle" font-size="12" fill="#334155">write-back</text>

  <text x="150" y="232" font-size="11" fill="#94a3b8">reads context</text>
  <line x1="165" y1="300" x2="205" y2="166" stroke="#94a3b8" stroke-dasharray="4 3" marker-end="url(#gray)"/>
  <line x1="355" y1="300" x2="358" y2="166" stroke="#94a3b8" stroke-dasharray="4 3" marker-end="url(#gray)"/>
  <line x1="545" y1="300" x2="372" y2="166" stroke="#94a3b8" stroke-dasharray="4 3" marker-end="url(#gray)"/>

  <text x="690" y="232" font-size="11" fill="#10b981">writes trusted context</text>
  <line x1="648" y1="166" x2="720" y2="298" stroke="#10b981" marker-end="url(#grn)"/>
</svg>
